<?xml version="1.0" encoding="UTF-8"?>
<svg id="Layer_1" data-name="Layer 1" xmlns="http://www.w3.org/2000/svg" viewBox="0 0 2000 2000">
  <defs>
    <style>
      .cls-1 {
        fill: #fff;
      }

      .cls-2 {
        fill: none;
        stroke: #6FD6CD;
        stroke-linecap: round;
        stroke-linejoin: round;
        stroke-width: 45px;
      }
    </style>
  </defs>
  <rect class="cls-1" y="2.02" width="1993.05" height="1993.05"/>
  <g>
    <path class="cls-2" d="M810.71,366.6c-.8.11-1.61.23-2.41.35-158.74,24.36-262.79,182.53-248.46,316.07,2.81,26.17,9.8,52.12,8.66,78.39-1.18,27.14-10.98,53.33-16.85,79.99-20.73,94.02,20.03,207.99,79.31,286.59,35.67,47.3,89.53,86.53,153.04,96.55,28.09,4.43,56.9,3.07,85.4,1.69,58.42-2.82,130.07-14.95,178.95-44.5,48.35-29.22,85.98-66.61,125.59-103.91,17.94-16.89,29.44-29.67,37.09-53.36,7.68-23.81,9.95-45.85,6.13-69.9,33.97,8.04,68.19-1.82,93.82-25.73,23.88-22.27,38.06-53.39,45.19-85.25,4.97-22.17,6.54-46.43-3.81-66.65-8.08-15.79-18.22-41.73-44.9-48.65-17.17-4.45-44.96,3.4-59.3,13.84-22.8,16.6-41.58,30.45-41.58,30.45,0,0-23.26-14.67-37.38-32.36-57.05-71.41-86.03-135.85-115.26-220.54-28.36-82.19-141.61-167.06-243.25-153.06Z"/>
    <g>
      <path class="cls-2" d="M852.78,658.78c-1.17-3,1.9-5.85,4.63-7.56,48.09-29.99,111.45-33.84,162.81-9.88"/>
      <path class="cls-2" d="M567.17,654.59c.44-1.74,1.93-2.99,3.37-4.07,5.03-3.8,10.47-7.17,16.47-9.11,3.32-1.08,6.76-1.7,10.19-2.33,16.79-3.06,33.83-6.15,50.97-5.05,11.95.77,23.77,4.48,34.88,8.76,6.76,2.6,13.39,5.53,19.96,8.59"/>
    </g>
    <g>
      <ellipse class="cls-2" cx="929.52" cy="764.94" rx="6.86" ry="25"/>
      <ellipse class="cls-2" cx="659.17" cy="764.94" rx="6.86" ry="25"/>
    </g>
    <path class="cls-2" d="M747.21,764.94c.39,13.57-.87,33.22-9.65,54.65-4.11,10.01-4.9,8.33-7.52,16.04-10.1,29.76-1.45,45.4-13.57,64.83-3.85,6.18-4.44,10.49-8.86,16.34-5.93,7.85-2.57,19.32,6.64,22.76,13.99,5.23,36.79,13.48,57.22,3.43"/>
    <path class="cls-2" d="M710.65,1035.17c20,7.57,49.44,15.87,85.55,16.26,82.72.9,97.69-14.73,136.47-38.7"/>
    <path class="cls-2" d="M833.04,1247.37c4.09,16.15,9.99,48.73,0,87.37-2.19,8.49-11.3,41.06-39.46,73.28-35.48,40.6-71.93,47.17-140.92,76.1-50.63,21.23-100.48,42.13-155.01,81.74-48.33,35.1-109.8,81.06-118.38,152.2-1.68,13.9-.96,25.68,0,33.82"/>
    <path class="cls-2" d="M765.47,1451.57c4.62,33.38,30.37,61.21,60.94,75.39s65.37,16.5,99.01,14.51c81.06-4.79,158.83-32.91,233.84-64"/>
    <path class="cls-2" d="M810.71,366.6c19.75-62.64,105.15-120.86,122.58-146.58,11.87-17.51,17.18-29.01,32.31-38.89,21.63-14.13,51.84-11.51,114.46,0,103.19,18.98,166.59,84.66,189.39,108.96,68.3,72.76,91.31,154.72,116.22,243.45,28.65,102.04,14.96,124.85,51.65,194.25,8.86,16.76,38.74,70.44,73.17,128.59,18.89,31.9,29.81,49.37,38.74,78.66,8.72,28.58,19.26,63.15,9.48,102.3-9.91,39.67-31.57,47.5-30.8,82.92.16,7.29,1.33,18.33,16.58,52.12,28.68,63.51,42.53,64.3,52.12,94.76,17.44,55.38-8.77,114.92-16.58,132.67-17.22,39.12-38.69,57.23-33.17,90.02.55,3.26.7,2.75,14.21,42.64,16.14,47.65,16.58,50.34,16.58,54.49.02,12.1-3.7,18.65-35.54,68.7-30.36,47.74-33.46,51.96-37.9,63.96-12.37,33.35-2.86,39.51-14.21,61.59-21.83,42.46-74.48,53.75-78.18,54.49-43.05,8.6-83.69-9.76-90.02-12.72-20.83-9.71-29.75-19.97-47.38-18.08-20.75,2.23-25.02,18.24-42.64,18.08-19.12-.17-38.86-19.26-45.01-39.4-7.27-23.8,9.53-32.39,14.21-73.44,1.32-11.57,4.72-44.64-9.48-78.18-13.31-31.45-28.89-32.11-37.9-61.23-7.42-23.99-3.46-44.86,0-61.95,12.29-60.8,44.19-62.6,49.75-104.24,4.87-36.43-19.05-38.8-42.64-125.56-7.32-26.92-14.22-53-14.21-87.65,0-39.39,8.92-71.4,16.58-92.39"/>
    <path class="cls-2" d="M952.17,179.59c-77.17-38.2-178.4-6.79-247.74,25.24-67.38,31.12-117.56,91.8-150.24,158.43-30.66,62.5-53.01,132.62-51.14,202.81,2.48,93.31-29.41,184.93-93.54,253.47-23.11,24.7-50.28,46.78-65.29,77.09-21.38,43.19-13.49,92.86-2.03,137.63,10.71,41.84,46.76,73.93,52.21,116.22,9.27,71.94-87.2,132.65-63.73,201.28,6.28,18.37,20.47,32.84,29.77,49.88,29.81,54.63,4.92,121.76-20.18,178.7,5.53,38.48,23.21,76.15,50.14,104.19"/>
    <path class="cls-2" d="M1715.02,1595.79c-27.67-62.49-85.11-110.99-151.35-127.81"/>
  </g>
</svg>